<svg width="17" height="11" viewBox="0 0 17 11" fill="none" xmlns="http://www.w3.org/2000/svg">
    <path fill-rule="evenodd" clip-rule="evenodd" d="M16 0H15C14.4477 0 14 0.447715 14 1V9.66667C14 10.219 14.4477 10.6667 15 10.6667H16C16.5523 10.6667 17 10.219 17 9.66667V1C17 0.447715 16.5523 0 16 0ZM10.3333 2.33325H11.3333C11.8856 2.33325 12.3333 2.78097 12.3333 3.33325V9.66659C12.3333 10.2189 11.8856 10.6666 11.3333 10.6666H10.3333C9.78103 10.6666 9.33331 10.2189 9.33331 9.66659V3.33325C9.33331 2.78097 9.78103 2.33325 10.3333 2.33325ZM6.66669 4.66675H5.66669C5.1144 4.66675 4.66669 5.11446 4.66669 5.66675V9.66675C4.66669 10.219 5.1144 10.6667 5.66669 10.6667H6.66669C7.21897 10.6667 7.66669 10.219 7.66669 9.66675V5.66675C7.66669 5.11446 7.21897 4.66675 6.66669 4.66675ZM2 6.66675H1C0.447715 6.66675 0 7.11446 0 7.66675V9.66675C0 10.219 0.447715 10.6667 1 10.6667H2C2.55228 10.6667 3 10.219 3 9.66675V7.66675C3 7.11446 2.55228 6.66675 2 6.66675Z" fill="white"/>
    </svg>
