<svg width="16" height="11" style="fill: #8E8E93" viewBox="0 0 16 11" fill="none" xmlns="http://www.w3.org/2000/svg">
    <path d="M7.66707 2.28448C9.8918 2.28457 12.0315 3.13869 13.6438 4.67028C13.7652 4.78852 13.9593 4.78703 14.0789 4.66693L15.2395 3.4966C15.3 3.43569 15.3338 3.35318 15.3333 3.26733C15.3328 3.18148 15.2981 3.09937 15.2368 3.03917C11.0049 -1.01306 4.32857 -1.01306 0.0966565 3.03917C0.0353544 3.09933 0.000572274 3.18141 6.99859e-06 3.26726C-0.000558277 3.35311 0.0331399 3.43565 0.0936446 3.4966L1.25459 4.66693C1.37409 4.78721 1.56831 4.78871 1.68965 4.67028C3.30221 3.13859 5.44212 2.28447 7.66707 2.28448Z" fill="black"/>
    <path d="M7.66699 6.09202C8.88934 6.09194 10.0681 6.5459 10.9741 7.36567C11.0967 7.48201 11.2897 7.47949 11.4092 7.35999L12.5685 6.18966C12.6295 6.12827 12.6634 6.04499 12.6625 5.95846C12.6616 5.87192 12.6261 5.78935 12.5638 5.72921C9.80462 3.16481 5.53171 3.16481 2.77255 5.72921C2.71022 5.78935 2.67466 5.87196 2.67384 5.95852C2.67302 6.04509 2.70702 6.12836 2.76819 6.18966L3.92713 7.35999C4.0466 7.47949 4.23964 7.48201 4.36219 7.36567C5.26766 6.54644 6.44545 6.09252 7.66699 6.09202Z" fill="black"/>
    <path d="M9.89504 8.88513C9.95704 8.82433 9.99118 8.74067 9.98941 8.65389C9.98764 8.56711 9.9501 8.48491 9.88567 8.42669C8.60501 7.34442 6.72937 7.34442 5.44871 8.42669C5.38423 8.48486 5.34663 8.56704 5.3448 8.65382C5.34296 8.7406 5.37704 8.82429 5.439 8.88513L7.44464 10.9071C7.50342 10.9665 7.58356 11 7.66719 11C7.75081 11 7.83096 10.9665 7.88974 10.9071L9.89504 8.88513Z" fill="black"/>
    </svg>
